@startuml classes_cpp

package func_sketch {
    class Real <<typedef>> {
        using Real = double
    }

    class Complex <<typedef>> <<future-implementation>> {
        using Complex = std::complex<double>
    }

    class Integer <<typedef>> {
        using Integer = int32_t
    }

    class Number <<typedef>> {
        using Number = std::variant<Integer, Real, Complex>
    }

    enum ParameterType <<future-implementation>> {
        x
        t
    }

    struct Point {
        + x : Real
        + y : Real
    }

    package utilities {
        class Any {
            + Any(object : T)
            + get<T>() : const T&
        }
    }

    package math {
        class UnaryOperator {
            + operator()(arg : Number, result : Number&)
        }
        UnaryOperator o-- Any

        class BinaryOperator {
            + operator()(left : Number, right : Number, result : Number&)
        }
        BinaryOperator o-- Any

        class MathFunction {
            + operator()(args : std::vector<Number>, result : Number&)
        }
        MathFunction o-- Any

        class MathFunctionList {
            + emplace(function : MathFunction)
            + get(name : std::string) : std::optional<MathFunction>
        }
        MathFunctionList o-- MathFunction

        class ConstantList {
            + emplace(name : std::string, value : Number)
            + get(name : std::string) : std::optional<Number>
        }

        note as math_functions_note
            Actual mathematical functions and operators
            are implemented here too.
        end note
    }

    package expressions {
        class Expression {
            - expression_ : std::variant<ConstantExpression, ParameterExpression, UnaryExpression, BinaryExpression, FunctionCallExpression>
        }

        struct ConstantExpression {
            + value : Number
        }
        Expression <..> ConstantExpression

        struct ParameterExpression {
            + type : ParameterType
        }
        Expression <..> ParameterExpression
        ParameterExpression o-- ParameterType

        struct UnaryExpression {
            + target : Expression*
            + operator_object : UnaryOperator
        }
        Expression <..> UnaryExpression
        UnaryExpression o-- UnaryOperator

        struct BinaryExpression {
            + left : Expression*
            + right : Expression*
            + operator_object : BinaryOperator
        }
        Expression <..> BinaryExpression
        BinaryExpression o-- BinaryOperator

        struct FunctionCallExpression {
            + arguments : std::vector<Expression*>
            + function : MathFunction
        }
        Expression <..> FunctionCallExpression
        FunctionCallExpression o-- MathFunction

        class ExpressionMemoryPool {
            + create<T>(args...) : Expression*
        }
        ExpressionMemoryPool ..> Expression

        class ExpressionEvaluator {
            + operator()(expression : const Expression&, parameter : Real, result : Real&)
        }

        class ExpressionPtr
        ExpressionPtr o-- Expression
        ExpressionPtr o-- ExpressionMemoryPool
    }

    package parser {
        class ExpressionParser {
            + operator()(expression_str : std::string) : ExpressionPtr
        }
        ExpressionParser o-- MathFunctionList
        ExpressionParser o-- ConstantList
        ExpressionParser ..> ExpressionPtr
    }

    package sampling {
        class SamplingConfig

        class FunctionSampler {
            + range(value : PlotRange)
            + config(value : SamplingConfig)
            + operator()(function : ExpressionPtr) : std::vector<Point>
        }
        FunctionSampler o-- SamplingConfig
        FunctionSampler ...> ExpressionPtr
        FunctionSampler ..> Point
    }

    package plotter {
        struct RGBColor {
            + r : uint8_t
            + g : uint8_t
            + b : uint8_t
        }

        class Image <<typedef>> {
            using Image = cv::Mat
        }

        class PlotRange {
            + x_range() : std::pair<Real, Real>
            + y_range() : std::pair<Real, Real>
        }
        FunctionSampler o-- PlotRange

        struct PlotConfig

        class Plotter {
            + range(value : PlotRange)
            + config(value : PlotConfig)
            + write_background(image : Image&)
            + write_curve(samples : std::vector<Point>, color : RGBColor, image : Image&)
            + write(sampled_curves : std::vector<SampledCurve>, image : Image&)
        }
        Plotter o-- PlotRange
        Plotter o-- PlotConfig
        Plotter ..> Point
        Plotter ..> RGBColor
        Plotter ..> Image
    }

    package curves {
        struct ExplicitCurveSpec {
            + name : std::string
            + function_expression_str : std::string
            + color : RGBColor
        }
        ExplicitCurveSpec o-- RGBColor

        struct SampledCurve {
            + name : std::string
            + points : std::vector<Point>
            + color : RGBColor
        }
        SampledCurve ..> Point
        SampledCurve o-- RGBColor

        class CurveSampler {
            + range(value : PlotRange)
            + config(value : PlotConfig)
            + operator()(spec : ExplicitCurveSpec) : SampledCurve
        }
        CurveSampler o-- ExpressionParser
        CurveSampler o-- FunctionSampler
        CurveSampler ..> ExplicitCurveSpec
        CurveSampler ..> SampledCurve
    }
    Plotter ..> SampledCurve
}

@enduml
